<svg width="3000mm" height="3000mm" viewBox="0 0 64 64" fill="none" xmlns="http://www.w3.org/2000/svg">
    <rect width="64" height="64" fill="#E11F26"/>
    <path fill-rule="evenodd" clip-rule="evenodd" d="M24.7823 17.6274C26.0374 18.0842 26.6973 19.437 26.2562 20.6489L17.3983 44.9857C16.9572 46.1976 15.5822 46.8097 14.3271 46.3528C13.072 45.896 12.4121 44.5433 12.8532 43.3314L21.7111 18.9946C22.1522 17.7827 23.5272 17.1706 24.7823 17.6274ZM36.5894 17.6484C37.8445 18.1052 38.5044 19.458 38.0633 20.6699L29.2055 45.0067C28.7644 46.2185 27.3893 46.8306 26.1342 46.3738C24.8791 45.917 24.2193 44.5643 24.6604 43.3524L33.5182 19.0156C33.9593 17.8037 35.3343 17.1916 36.5894 17.6484ZM49.9251 20.6684C50.3662 19.4565 49.7063 18.1038 48.4512 17.647C47.1962 17.1901 45.8211 17.8022 45.38 19.0141L36.5222 43.3509C36.0811 44.5628 36.741 45.9155 37.9961 46.3724C39.2511 46.8292 40.6262 46.2171 41.0673 45.0052L49.9251 20.6684Z" fill="#FFFBFF"/>
</svg>