<svg width="50" height="58" viewBox="0 0 50 58" fill="none" xmlns="http://www.w3.org/2000/svg">
<path d="M0 0H40V40H28L21.5976 47.317C21.2178 47.751 20.6692 58 20.0925 48H19.9075C19.3308 58 18.7822 47.751 18.4024 47.317L12 40H0V0Z" fill="white"/>
<path fill-rule="evenodd" clip-rule="evenodd" d="M16.4618 12.3027C17.134 12.5474 17.4874 13.2718 17.2512 13.9208L12.5074 26.9542C12.2712 27.6032 11.5348 27.931 10.8626 27.6864C10.1905 27.4417 9.8371 26.7173 10.0733 26.0683L14.8171 13.0349C15.0533 12.3859 15.7897 12.0581 16.4618 12.3027ZM22.785 12.3145C23.4572 12.5591 23.8106 13.2836 23.5744 13.9326L18.8306 26.9659C18.5944 27.6149 17.858 27.9427 17.1859 27.6981C16.5137 27.4534 16.1603 26.729 16.3965 26.08L21.1403 13.0466C21.3765 12.3976 22.1129 12.0698 22.785 12.3145ZM29.9267 13.9314C30.1629 13.2824 29.8095 12.558 29.1374 12.3133C28.4652 12.0687 27.7289 12.3965 27.4926 13.0455L22.7489 26.0789C22.5127 26.7279 22.8661 27.4523 23.5382 27.697C24.2104 27.9416 24.9468 27.6138 25.183 26.9648L29.9267 13.9314Z" fill="#0A3049"/>
</svg>
