<svg version="1.0" xmlns="http://www.w3.org/2000/svg"
 width="48.000000pt" height="48.000000pt" viewBox="0 0 48.000000 48.000000"
 preserveAspectRatio="xMidYMid meet">

<g transform="translate(0.000000,48.000000) scale(0.100000,-0.100000)"
fill="#e11f26" stroke="none">
<path d="M0 240 l0 -240 240 0 240 0 0 240 0 240 -240 0 -240 0 0 -240z m195
100 c8 -13 -52 -197 -67 -206 -5 -3 -14 -2 -20 4 -9 9 28 144 54 195 10 19 24
22 33 7z m89 1 c7 -10 -51 -190 -65 -206 -6 -5 -13 -5 -20 2 -17 17 49 213 71
213 5 0 11 -4 14 -9z m90 0 c6 -9 -52 -190 -65 -206 -6 -5 -13 -5 -20 2 -17
17 49 213 71 213 5 0 11 -4 14 -9z"/>
</g>
</svg>
