<svg width="20" height="20" viewBox="0 0 20 20" fill="none" xmlns="http://www.w3.org/2000/svg">
<path fill-rule="evenodd" clip-rule="evenodd" d="M1.41418 10L9.99997 1.41421L18.5858 10L9.99997 18.5858L1.41418 10ZM0.707077 10.7071C0.316553 10.3166 0.316554 9.68342 0.707078 9.2929L9.29286 0.707108C9.68339 0.316583 10.3166 0.316584 10.7071 0.707109L19.2929 9.2929C19.6834 9.68342 19.6834 10.3166 19.2929 10.7071L10.7071 19.2929C10.3166 19.6834 9.68339 19.6834 9.29286 19.2929L0.707077 10.7071ZM14.897 8.666L11.583 12.018C11.4752 11.6343 11.3423 11.2582 11.185 10.892L14.103 8.06L14.897 8.666ZM7.70997 8H9.99997V7H5.99997V11H6.99997V8.706L8.32997 10.031C9.48297 11.3 9.99997 11.987 9.99997 14.5V15H11V14.5C11.1596 12.2734 10.4628 11.07 9.05197 9.34L7.70997 8Z" fill="black"/>
</svg>
