<svg width="16" height="16" viewBox="0 0 16 16" fill="none" xmlns="http://www.w3.org/2000/svg">
<path fill-rule="evenodd" clip-rule="evenodd" d="M8.97254 4C8.72381 1.75002 6.81628 0 4.5 0C2.01472 0 0 2.01472 0 4.5C0 6.98528 2.01472 9 4.5 9C6.81628 9 8.72381 7.24998 8.97254 5H10C11.3807 5 12.5 6.11929 12.5 7.5V13.0858L11.2071 11.7929C11.0118 11.5976 10.6952 11.5976 10.5 11.7929C10.3047 11.9882 10.3047 12.3047 10.5 12.5L13 15L15.5 12.5C15.6952 12.3047 15.6952 11.9882 15.5 11.7929C15.3047 11.5976 14.9881 11.5976 14.7929 11.7929L13.5 13.0857V7.5C13.5 5.567 11.933 4 10 4H8.97254ZM8 4.5C8 6.433 6.433 8 4.5 8C2.567 8 1 6.433 1 4.5C1 2.567 2.567 1 4.5 1C6.433 1 8 2.567 8 4.5Z" fill="black"/>
</svg>
