<svg width="16" height="16" viewBox="0 0 16 16" fill="none" xmlns="http://www.w3.org/2000/svg">
<g clip-path="url(#clip0_345_615)">
<path fill-rule="evenodd" clip-rule="evenodd" d="M0 0V3H3V2H14V3.08535C13.4174 3.29127 13 3.84689 13 4.5C13 5.15311 13.4174 5.70873 14 5.91465V8H7.91465C7.70873 7.4174 7.15311 7 6.5 7C5.84689 7 5.29127 7.4174 5.08535 8H1V13.0854C0.417404 13.2913 0 13.8469 0 14.5C0 15.3284 0.671573 16 1.5 16C2.15311 16 2.70873 15.5826 2.91465 15H13V16H16V13H13V14H2.91465C2.764 13.5738 2.42621 13.236 2 13.0854V9H5.08535C5.29127 9.5826 5.84689 10 6.5 10C7.15311 10 7.70873 9.5826 7.91465 9H15V5.91465C15.5826 5.70873 16 5.15311 16 4.5C16 3.84689 15.5826 3.29127 15 3.08535V1H3V0H0ZM2 1H1V2H2V1ZM15 4.5C15 4.77614 14.7761 5 14.5 5C14.2239 5 14 4.77614 14 4.5C14 4.22386 14.2239 4 14.5 4C14.7761 4 15 4.22386 15 4.5ZM6.5 9C6.77614 9 7 8.77614 7 8.5C7 8.22386 6.77614 8 6.5 8C6.22386 8 6 8.22386 6 8.5C6 8.77614 6.22386 9 6.5 9ZM15 15V14H14V15H15ZM2 14.5C2 14.7761 1.77614 15 1.5 15C1.22386 15 1 14.7761 1 14.5C1 14.2239 1.22386 14 1.5 14C1.77614 14 2 14.2239 2 14.5Z" fill="black"/>
</g>
<defs>
<clipPath id="clip0_345_615">
<rect width="16" height="16" fill="white"/>
</clipPath>
</defs>
</svg>
