<svg width="19" height="20" viewBox="0 0 19 20" fill="none" xmlns="http://www.w3.org/2000/svg">
<path d="M13 18V15H10V14H13V11H14V14H17V15H14V18H13Z" fill="black"/>
<path fill-rule="evenodd" clip-rule="evenodd" d="M18 11.3369V4C18 1.79086 13.9706 0 9 0C4.02944 0 0 1.79086 0 4V15C0 16.412 1.19738 17.5376 2.77669 18.2808C4.39522 19.0425 6.59604 19.5 9 19.5C9.68129 19.5 10.3463 19.4633 10.9863 19.3933C11.7397 19.7811 12.5943 20 13.5 20C16.5376 20 19 17.5376 19 14.5C19 13.3226 18.63 12.2316 18 11.3369ZM8.20228 15.9831C8.47282 16.9515 9.00178 17.8121 9.71014 18.4859C9.47633 18.4952 9.23948 18.5 9 18.5C6.70954 18.5 4.66036 18.0621 3.20249 17.376C1.70541 16.6715 1 15.7971 1 15V13.6021C1.47528 14.0621 2.08987 14.4576 2.77669 14.7808C4.21437 15.4574 6.11147 15.894 8.20228 15.9831ZM8 14.5C8 14.6593 8.00678 14.8171 8.02005 14.973C6.12778 14.8678 4.44899 14.4626 3.20249 13.876C1.70541 13.1715 1 12.2971 1 11.5V9.60213C1.47528 10.0621 2.08987 10.4576 2.77669 10.7808C4.30543 11.5002 6.35365 11.9483 8.60186 11.9958C8.21709 12.7469 8 13.5981 8 14.5ZM9 11C9.08659 11 9.17283 10.9994 9.25871 10.9981C10.2675 9.7777 11.7929 9 13.5 9C14.2512 9 14.9672 9.15059 15.6195 9.42324C16.5543 8.8161 17 8.13365 17 7.5V5.83431C15.5038 7.12069 12.4829 8 9 8C5.51707 8 2.49623 7.12069 1 5.83431V7.5C1 8.29714 1.70541 9.17151 3.20249 9.87602C4.66036 10.5621 6.70954 11 9 11ZM17 10.2572C16.87 10.1498 16.735 10.0483 16.5954 9.95306C16.7391 9.84068 16.8744 9.72365 17 9.60213V10.2572ZM17 4C17 4.2269 16.9007 4.51836 16.5683 4.8676C16.2311 5.22199 15.6958 5.58663 14.9578 5.91462C13.4844 6.56946 11.3789 7 9 7C6.62114 7 4.51558 6.56946 3.04218 5.91462C2.30422 5.58663 1.76892 5.22199 1.43166 4.8676C1.0993 4.51836 1 4.2269 1 4C1 3.7731 1.0993 3.48164 1.43166 3.1324C1.76892 2.77801 2.30422 2.41337 3.04218 2.08538C4.51558 1.43054 6.62114 1 9 1C11.3789 1 13.4844 1.43054 14.9578 2.08538C15.6958 2.41337 16.2311 2.77801 16.5683 3.1324C16.9007 3.48164 17 3.7731 17 4ZM13.5 19C15.9853 19 18 16.9853 18 14.5C18 12.0147 15.9853 10 13.5 10C11.0147 10 9 12.0147 9 14.5C9 16.9853 11.0147 19 13.5 19Z" fill="black"/>
</svg>