<svg width="24" height="24" viewBox="0 0 24 24" fill="none" xmlns="http://www.w3.org/2000/svg">
<g opacity="0.8">
<path d="M3 18H2V11H3V15.293L5.293 13H6.707L4.85 14.857L7.006 18H5.793L4.131 15.576L3 16.707V18ZM16 11V18H17V11H16ZM8 13V18H9V15C9 14.7348 9.10536 14.4804 9.29289 14.2929C9.48043 14.1054 9.73478 14 10 14C10.2652 14 10.5196 14.1054 10.7071 14.2929C10.8946 14.4804 11 14.7348 11 15V18H12V15C12 14.7348 12.1054 14.4804 12.2929 14.2929C12.4804 14.1054 12.7348 14 13 14C13.2652 14 13.5196 14.1054 13.7071 14.2929C13.8946 14.4804 14 14.7348 14 15V18H15V15C15.0021 14.5927 14.8792 14.1945 14.6479 13.8592C14.4166 13.5239 14.088 13.2677 13.7065 13.125C13.325 12.9823 12.9088 12.96 12.5143 13.0613C12.1197 13.1625 11.7657 13.3823 11.5 13.691C11.1997 13.3372 10.7836 13.1015 10.3258 13.0259C9.86793 12.9503 9.39811 13.0396 9 13.278V13H8ZM21 6.709V23H3V19H4V22H20V8H14V2H4V10H3V1H15.29L21 6.709ZM20 6.8L15.2 2H15V7H20V6.8Z" fill="#076FE5"/>
</g>
</svg>
