<svg width="32" height="32" viewBox="0 0 32 32" fill="none" xmlns="http://www.w3.org/2000/svg">
<path fill-rule="evenodd" clip-rule="evenodd" d="M27.0001 13.018V9.699L19.3001 2H5.00007V13.018H2.01807V27.982H5.00007V30H27.0001V27.982H29.9821V13.018H27.0001ZM19.0001 3L26.0001 10H19.0001V3ZM6.00007 3H18.0001V11H26.0001V13.018H6.00007V3ZM26.0001 29H6.00007V27.982H26.0001V29ZM29.0181 27.018H2.98207V13.982H29.0181V27.018ZM8.85007 23.268C8.02191 22.4702 7.68913 21.2874 7.97982 20.1749C8.27051 19.0623 9.13936 18.1934 10.2519 17.9028C11.3645 17.6121 12.5473 17.9448 13.3451 18.773L12.6381 19.48C12.0888 18.9234 11.2833 18.7038 10.5275 18.9046C9.77176 19.1054 9.18153 19.6958 8.98097 20.4517C8.7804 21.2075 9.00026 22.0129 9.55707 22.562C10.4187 23.3854 11.7755 23.3854 12.6371 22.562L13.3451 23.269C12.7492 23.8654 11.9407 24.2005 11.0976 24.2005C10.2545 24.2005 9.44595 23.8644 8.85007 23.268ZM22.0401 23.984L19.6661 18H20.7421L22.5101 22.453L24.3041 18H25.3821L22.9701 23.986L22.0401 23.984ZM17.9661 22.461C18.0508 22.2376 18.0358 21.9887 17.9251 21.777C17.6892 21.494 17.3468 21.3214 16.9791 21.3C15.6901 21.102 15.0261 20.516 15.0051 19.557C14.9964 19.1086 15.1695 18.6757 15.4851 18.357C15.8251 18.0029 16.2942 17.8019 16.7851 17.8C17.5755 17.782 18.3096 18.2073 18.6871 18.902L17.8361 19.428C17.6408 19.0296 17.2294 18.7836 16.7861 18.8C16.5668 18.8 16.3571 18.89 16.2061 19.049C16.0778 19.1742 16.0054 19.3458 16.0051 19.525C16.0091 19.731 16.0191 20.141 17.1311 20.311C17.7982 20.3594 18.4067 20.71 18.7831 21.263C19.0476 21.7298 19.0936 22.2892 18.9091 22.793C18.5582 23.6327 17.7134 24.1576 16.8051 24.1C15.9103 24.1359 15.0748 23.6532 14.6591 22.86L15.5231 22.355C15.7616 22.8387 16.2668 23.1323 16.8051 23.1C17.2872 23.1487 17.7491 22.8938 17.9651 22.46L17.9661 22.461ZM4.50007 23.5C4.50007 22.9477 4.94778 22.5 5.50007 22.5C6.05235 22.5 6.50007 22.9477 6.50007 23.5C6.50007 24.0523 6.05235 24.5 5.50007 24.5C4.94824 24.4989 4.50117 24.0518 4.50007 23.5Z" fill="#076FE5"/>
</svg>
